<svg xmlns="http://www.w3.org/2000/svg" viewBox="0 0 16 16"><style>.icon-canvas-transparent{opacity:0;fill:#f6f6f6}.icon-vs-out{fill:#f6f6f6}.icon-vs-bg{fill:#424242}.icon-vs-fg{fill:#f0eff1}</style><path id="canvas" d="M16 16H0V0h16v16z" class="icon-canvas-transparent"/><path id="outline" d="M16 14H0V2h16v12z" class="icon-vs-out" display="none"/><path id="iconBg" d="M1 3v10h14V3H1zm13 9H8V8.507l3.998.006-2.121 2.129.707.707 3.35-3.35-3.35-3.338-.707.706 2.138 2.146L8 7.507V4h6v8z" class="icon-vs-bg"/><path id="iconFg" d="M14 4v8H8V8.507l3.998.006-2.121 2.129.707.707 3.35-3.35-3.35-3.338-.707.706 2.138 2.146L8 7.507V4h6zM6.057 5.367L5.35 4.66 2 8.01l3.35 3.338.707-.707-2.139-2.146L8 8.501v-1l-4.064-.005 2.121-2.129z" class="icon-vs-fg" display="none"/></svg>